<?xml version="1.0" encoding="UTF-8" standalone="no"?>
<!-- Uploaded to: SVG Repo, www.svgrepo.com, Transformed by: SVG Repo Mixer Tools -->

<svg
   fill="#e57474	"
   width="800px"
   height="800px"
   viewBox="0 0 20 20"
   version="1.1"
   id="svg1"
   sodipodi:docname="erase.svg"
   inkscape:version="1.3.2 (091e20ef0f, 2023-11-25, custom)"
   xmlns:inkscape="http://www.inkscape.org/namespaces/inkscape"
   xmlns:sodipodi="http://sodipodi.sourceforge.net/DTD/sodipodi-0.dtd"
   xmlns="http://www.w3.org/2000/svg"
   xmlns:svg="http://www.w3.org/2000/svg">
  <defs
     id="defs1" />
  <sodipodi:namedview
     id="namedview1"
     pagecolor="#ffffff"
     bordercolor="#000000"
     borderopacity="0.25"
     inkscape:showpageshadow="2"
     inkscape:pageopacity="0.0"
     inkscape:pagecheckerboard="0"
     inkscape:deskcolor="#d1d1d1"
     inkscape:zoom="0.295"
     inkscape:cx="398.30508"
     inkscape:cy="398.30508"
     inkscape:window-width="1366"
     inkscape:window-height="768"
     inkscape:window-x="0"
     inkscape:window-y="0"
     inkscape:window-maximized="1"
     inkscape:current-layer="SVGRepo_iconCarrier" />
  <g
     id="SVGRepo_bgCarrier"
     stroke-width="0" />
  <g
     id="SVGRepo_tracerCarrier"
     stroke-linecap="round"
     stroke-linejoin="round" />
  <g
     id="SVGRepo_iconCarrier">
    <path
       d="M18 3H8.446c-.44 0-1.071.236-1.402.525L.248 9.473a.682.682 0 0 0 0 1.053l6.796 5.947c.331.289.962.527 1.402.527H18c1.1 0 2-.9 2-2V5c0-1.1-.9-2-2-2zm-2.809 11l-2.557-2.557L10.078 14l-1.443-1.443L11.191 10 8.635 7.443 10.078 6l2.557 2.555L15.19 6l1.444 1.443L14.078 10l2.557 2.555L15.191 14z"
       id="path1"
       style="fill:#dadada;fill-opacity:1" />
  </g>
</svg>
