<!DOCTYPE svg PUBLIC "-//W3C//DTD SVG 1.1//EN" "http://www.w3.org/Graphics/SVG/1.1/DTD/svg11.dtd">
<!-- Uploaded to: SVG Repo, www.svgrepo.com, Transformed by: SVG Repo Mixer Tools -->
<svg fill="#e57474&#9;" width="800px" height="800px" viewBox="-1 0 19 19" xmlns="http://www.w3.org/2000/svg" class="cf-icon-svg">
<g id="SVGRepo_bgCarrier" stroke-width="0"/>
<g id="SVGRepo_tracerCarrier" stroke-linecap="round" stroke-linejoin="round"/>
<g id="SVGRepo_iconCarrier">
<path d="M16.417 9.583A7.917 7.917 0 1 1 8.5 1.666a7.917 7.917 0 0 1 7.917 7.917zm-4.23-.585a.476.476 0 0 0-.475-.475h-.7V7.262a2.52 2.52 0 0 0-5.041 0v1.261h-.7a.476.476 0 0 0-.475.475v5.108a.476.476 0 0 0 .475.475h6.44a.477.477 0 0 0 .476-.475zM10.22 7.262v1.261H6.762V7.262a1.73 1.73 0 0 1 3.459 0zm-1.413 4.363v1.309a.317.317 0 1 1-.633 0v-1.309a.79.79 0 1 1 .633 0z"/>
</g>
</svg>